<svg id="Layer_1" data-name="Layer 1" xmlns="http://www.w3.org/2000/svg" xmlns:xlink="http://www.w3.org/1999/xlink" width="1213.96" height="211.85" viewBox="0 0 1213.96 211.85">
  <defs>
    <style>
      .cls-1 {
        fill: #fff;
      }

      .cls-2 {
        fill: url(#linear-gradient);
      }
    </style>
    <linearGradient id="linear-gradient" x1="36.25" y1="28.09" x2="191.92" y2="183.76" gradientUnits="userSpaceOnUse">
      <stop offset="0" stop-color="#e906f8"/>
      <stop offset="0.17" stop-color="#d112f8"/>
      <stop offset="0.52" stop-color="#942ff7"/>
      <stop offset="1" stop-color="#395bf5"/>
    </linearGradient>
  </defs>
  <path class="cls-1" d="M678,210.9H657.35c0-10,0-19.79,0-29.58,0-7,.11-14-.08-21-.23-8.25-5.48-13.19-13.7-13.22s-13.5,5-13.56,13.29c-.11,16.65,0,33.31,0,50.35H609.28c-.07-1.27-.24-2.71-.22-4.15.28-17.48.18-35,1-52.43.45-9.11,5.84-15.61,14.34-19.47,14.85-6.74,29.24-6.36,43.77,2.18,11.35-7.26,24-8.76,37.25-4.64,13.82,4.3,20.31,12.63,20.59,27.18.33,17,.08,34,.08,51.38-4.34,0-8.82.48-13.15-.13-4.55-.64-7-4.61-7.06-10.07-.07-13.17.12-26.34-.08-39.51-.17-10.65-9.47-16.72-19.47-13-5.74,2.15-8.3,6-8.32,12.78C678,177.37,678,193.87,678,210.9Z" transform="translate(-65.17 -56.62)"/>
  <path class="cls-1" d="M419.68,210.92H397.4c-2.25-6.79-4.53-13.66-6.89-20.8-12.43,0-24.74-.09-37.05.13-1.19,0-2.93,1.73-3.43,3-1.82,4.81-3,9.86-4.9,14.64a5.55,5.55,0,0,1-3.88,3.06c-6.14.33-12.3.14-19,.14.53-1.73.92-3.21,1.43-4.65q15.6-43.9,31.22-87.81c2.86-8,5.09-9.62,13.5-9.63q6.5,0,13,0a10.75,10.75,0,0,1,1.39.26Q401.06,159.73,419.68,210.92Zm-49-81.06c-4.9,15-9.45,28.88-14.05,42.92h28.19C380.15,158.56,375.59,144.72,370.69,129.86Z" transform="translate(-65.17 -56.62)"/>
  <path class="cls-1" d="M943.7,211H923.34q-17.45-50.39-35.2-101.62h23.51c7,24.48,14.05,49.24,21.11,74l1-.14q9.16-31.51,18.32-63C955,110,956.3,109,967.13,109h11.26Z" transform="translate(-65.17 -56.62)"/>
  <path class="cls-1" d="M597.58,187.13c-3.77,15.42-16.05,25.16-32.05,25.92-23.35,1.11-37-11.44-39-36.77a68.57,68.57,0,0,1,2-21.72c4.33-17,18.09-25.66,37.32-24.44,17.37,1.1,29.28,11.88,32.06,29.39.88,5.55,1,11.22,1.52,17.46H547.73c0,14.79,9.67,22.52,21.86,18,.93-.34,2.15-.6,2.64-1.31C578.77,184.23,588.47,187.55,597.58,187.13Zm-20.31-23.07c-.64-11.66-5.86-17.24-15.24-17-8.77.25-14.2,6.59-14.28,17h29.52Z" transform="translate(-65.17 -56.62)"/>
  <path class="cls-1" d="M834.61,156c-4.88,0-9.72.4-14.45-.17-2.18-.27-4.52-2.06-6.11-3.78-5.31-5.72-13.52-8-20.37-4.67a7.07,7.07,0,0,0-3.6,4.73c-.15,1.62,1.37,4.39,2.84,5,5.19,2.13,10.67,3.54,16,5.22,4.91,1.53,9.88,2.88,14.71,4.64,7.57,2.76,12.79,7.69,13.49,16.23.8,9.78-1.36,18.91-10.33,23.81-15.69,8.58-32.24,8.88-48.34.91-8-3.95-11.58-12.58-10.93-22.58H786.9c4.17,10.29,13.52,14.64,23.82,10.44,2.34-1,5-3.88,5.3-6.17.22-1.8-2.62-5-4.79-5.86-5.38-2.09-11.18-3.06-16.75-4.69a104.62,104.62,0,0,1-12.25-4.19c-7.34-3.17-12.43-8.4-13.08-16.79-.72-9.33,2.48-17.09,10.36-22.42,11.52-7.77,33.35-7.59,44.74.38C831,140.71,834.12,147.47,834.61,156Z" transform="translate(-65.17 -56.62)"/>
  <path class="cls-1" d="M1018.24,185.25H1038c3.74,10.63,15.42,15.27,25.27,9.81a8.22,8.22,0,0,0,3.86-5.65c.1-1.69-2-4.48-3.71-5.12-5.73-2.13-11.76-3.43-17.63-5.2a114,114,0,0,1-12.72-4.33c-7.34-3.2-12.33-8.5-12.91-16.91-.64-9.14,2.48-16.75,10.13-22,11.51-8,33.72-7.73,45.17.28,5.83,4.08,9.07,10.25,10.21,20-8-.85-16.36,2.81-22.58-6-3.4-4.81-14.46-5.51-19.5-2.34-3.78,2.37-4,7.33.08,9.16,5.11,2.28,10.65,3.59,16,5.27,4.9,1.54,9.9,2.82,14.73,4.57,7.53,2.73,13,7.52,13.73,16.07.9,9.76-1.14,19-10.05,23.94-15.8,8.74-32.55,9.2-48.76,1C1020.79,203.42,1018.38,194.9,1018.24,185.25Z" transform="translate(-65.17 -56.62)"/>
  <path class="cls-1" d="M1200.47,171.28c-.57,4.45-.76,9-1.77,13.33a36.29,36.29,0,0,1-57.81,20.69A33.93,33.93,0,0,1,1130.65,191c-4.43-11.77-4.58-24.12-1.15-36.35,4.91-17.48,20.37-26.94,39.47-24.24,18.77,2.65,29.8,15.53,31,36.3.09,1.49,0,3,0,4.49Zm-20,0c-.82-4.5-1.17-8.35-2.26-12-2.26-7.47-7.7-11.61-14.45-11.53-7.51.09-12.37,3.89-14.74,11.76-2.49,8.23-1.69,16.5.38,24.63,1.82,7.14,7.12,11.32,13.86,11.61,5.93.26,11.73-3.48,14-10.07C1178.9,180.93,1179.47,175.75,1180.42,171.31Z" transform="translate(-65.17 -56.62)"/>
  <path class="cls-1" d="M1278.94,211.12c-3.4,0-6.38,0-9.36,0-7.44-.13-11.06-3.59-11.13-11.05-.13-13,.07-26-.11-39-.15-10.59-9-16.57-18.86-13.05-5.78,2.06-8.39,5.79-8.42,12.67-.08,15.67,0,31.34,0,47v3.17h-20.53a23.35,23.35,0,0,1-.35-3c0-14.84-.08-29.68,0-44.52a59.75,59.75,0,0,1,1-10.41c1.5-8,5.71-14,13.21-17.67,9.26-4.5,18.79-6.33,29-4.24,16.54,3.39,24.67,11.78,25.33,28.61S1278.94,193.53,1278.94,211.12Z" transform="translate(-65.17 -56.62)"/>
  <path class="cls-1" d="M486.54,108.88c6.6.93,14.57-2.7,18.14,4.47,2.64,5.27,2.25,12.06,3.29,18.65h10.62c1.24,9.66-1.57,13.17-11.57,14.46,0,14.92-.15,29.89.21,44.85,0,1.6,2.78,3.71,4.72,4.52s4.26.17,6.78.17v15.59c-8-.48-16.27-.37-24.3-1.78-2.77-.48-5.25-4.49-7.15-7.37-1.07-1.61-.92-4.19-.93-6.33q-.08-42.26,0-84.52C486.33,111,486.43,110.31,486.54,108.88Z" transform="translate(-65.17 -56.62)"/>
  <path class="cls-1" d="M452,211H430.5c.56-17-.05-34.07,2-50.79s16.36-26.89,35.75-28c2.29-.14,4.6,0,7.15,0v21c-2.84,0-5.47-.08-8.09,0-9.84.37-15.15,5.48-15.29,15.31C451.83,182.43,452,196.41,452,211Z" transform="translate(-65.17 -56.62)"/>
  <path class="cls-1" d="M1101.19,132.48c.49-.24.63-.36.78-.37,17.67-.85,19.86,1.24,19.86,19v59.7h-20.64Z" transform="translate(-65.17 -56.62)"/>
  <path class="cls-1" d="M1012.82,210.87H992.27V132.09c3.85,0,7.65-.25,11.41.06,5.64.47,9.08,4.93,9.11,11.69.08,14.81,0,29.62,0,44.43Z" transform="translate(-65.17 -56.62)"/>
  <path class="cls-1" d="M761.75,210.93H741.13V132.11c4,0,7.92-.28,11.83.07,4.9.44,8.67,4.53,8.71,10C761.84,164.92,761.75,187.69,761.75,210.93Z" transform="translate(-65.17 -56.62)"/>
  <path class="cls-1" d="M1121.59,124.88h-20.34V109.64C1115.85,107.19,1123.17,110.41,1121.59,124.88Z" transform="translate(-65.17 -56.62)"/>
  <path class="cls-1" d="M992.14,124.8V109.52c16.36-2.33,21.74,1.67,20.28,15.28Z" transform="translate(-65.17 -56.62)"/>
  <path class="cls-1" d="M761,124.85H741.11V109.49C759.35,106.59,763.65,114.15,761,124.85Z" transform="translate(-65.17 -56.62)"/>
  <ellipse class="cls-2" cx="114.08" cy="105.92" rx="114.08" ry="105.92"/>
  <path class="cls-1" d="M214.19,166.28c-.84,1.75-1.61,3.41-2.42,5.05-1.42,2.9-2.88,5.78-4.29,8.67-1.77,3.63-3.5,7.28-5.29,10.9-1.32,2.67-2.72,5.3-4,8s-2.6,5.44-3.92,8.15c-.81,1.65-1.68,3.27-2.51,4.91-.62,1.24-1.16,2.52-1.83,3.73a13.9,13.9,0,0,1-1.84,2.75,4.75,4.75,0,0,1-3.68,1.21q-13.12,0-26.27,0-28,0-56.07,0a4.86,4.86,0,0,1-4.32-1.81,5,5,0,0,1-.29-5.46c.88-1.82,1.79-3.61,2.7-5.41.83-1.64,1.7-3.26,2.52-4.9,1.33-2.68,2.62-5.37,4-8s2.65-5.22,4-7.83c1.77-3.49,3.56-7,5.32-10.47,1.3-2.62,2.53-5.27,3.85-7.87,2.46-4.88,5-9.72,7.45-14.59,1.31-2.61,2.55-5.25,3.85-7.87,1.4-2.8,2.85-5.57,4.27-8.37,1.49-3,3-5.94,4.45-8.9,1.81-3.58,3.64-7.13,5.44-10.72,1.34-2.69,2.61-5.42,4-8.11,1.88-3.71,3.83-7.39,5.7-11.1,1.4-2.77,2.72-5.58,4.11-8.35,3.19-6.36,6.42-12.7,9.59-19.07a4.93,4.93,0,0,1,4.71-2.91q7.94-.07,15.85,0a4.91,4.91,0,0,1,4.72,2.91c1.84,3.8,3.75,7.57,5.65,11.34s3.88,7.62,5.8,11.44,3.95,7.94,5.95,11.9c1.73,3.44,3.49,6.86,5.23,10.31s3.42,6.84,5.13,10.26c2.47,4.93,4.92,9.87,7.4,14.8,1.8,3.58,3.63,7.14,5.43,10.72,1.64,3.25,3.25,6.52,4.89,9.77s3.22,6.28,4.8,9.44c1.36,2.72,2.66,5.47,4,8.19s2.74,5.36,4.1,8c1.9,3.77,3.77,7.56,5.66,11.33,1.37,2.72,2.78,5.42,4.15,8.13,1,2,2.09,4.08,3.06,6.15,1.09,2.32.57,5.1-1.6,6.27a6.7,6.7,0,0,1-3,.75c-5.32.07-10.63,0-15.95,0a5.85,5.85,0,0,1-5.83-3.6c-1.23-2.58-2.5-5.15-3.76-7.72-1.77-3.6-3.52-7.2-5.3-10.79-1.94-3.92-3.92-7.82-5.85-11.74-1.24-2.51-2.39-5.06-3.63-7.58-1-2-2-3.91-3-5.87-.88-1.75-1.71-3.53-2.56-5.29C214.52,166.83,214.38,166.61,214.19,166.28ZM181.12,98.89c-16.2,33-32.31,65.74-48.46,98.58.34,0,.54,0,.75,0q21,0,42.11,0a1,1,0,0,0,1-.64c1.7-3.46,3.43-6.91,5.16-10.36,1.38-2.74,2.81-5.46,4.18-8.21,1.26-2.5,2.44-5,3.7-7.54,1.64-3.29,3.32-6.56,5-9.84,1.4-2.74,2.81-5.46,4.19-8.21s2.77-5.61,4.12-8.44a1.27,1.27,0,0,0,0-.94c-.71-1.56-1.47-3.1-2.22-4.64s-1.5-3.1-2.26-4.64c-.85-1.73-1.72-3.45-2.57-5.17s-1.54-3.21-2.32-4.81-1.72-3.44-2.57-5.17c-.72-1.47-1.4-3-2.12-4.4-.87-1.76-1.8-3.48-2.66-5.24C184.5,105.9,182.87,102.51,181.12,98.89Z" transform="translate(-65.17 -56.62)"/>
</svg>
