<svg id="Layer_1" data-name="Layer 1" xmlns="http://www.w3.org/2000/svg" width="247" height="385" viewBox="0 0 247 385">
  <defs>
    <style>
      .cls-1 {
        fill: #fff;
      }

      .cls-2, .cls-4 {
        fill: none;
        stroke-width: 2px;
      }

      .cls-2 {
        stroke: #e7e7e7;
      }

      .cls-3 {
        fill: #c577ff;
      }

      .cls-4 {
        stroke: #eaeaea;
      }

      .cls-5 {
        fill: #eaeaea;
      }
    </style>
  </defs>
  <g id="iPhone_12_Pro_Max_1" data-name="iPhone 12 Pro Max 1">
    <g id="Rectangle_12" data-name="Rectangle 12">
      <rect class="cls-1" y="6" width="234" height="379" rx="32"/>
      <rect class="cls-2" x="1" y="7" width="232" height="377" rx="31"/>
    </g>
    <g id="Rectangle_13" data-name="Rectangle 13">
      <rect class="cls-1" x="7" y="3" width="234" height="379" rx="32"/>
      <rect class="cls-2" x="8" y="4" width="232" height="377" rx="31"/>
    </g>
    <g id="Rectangle_1" data-name="Rectangle 1">
      <rect class="cls-1" x="13" width="234" height="379" rx="32"/>
      <rect class="cls-2" x="14" y="1" width="232" height="377" rx="31"/>
    </g>
    <g id="Ellipse_1" data-name="Ellipse 1">
      <ellipse class="cls-3" cx="58.5" cy="39.5" rx="22.5" ry="21.5"/>
      <ellipse class="cls-4" cx="58.5" cy="39.5" rx="21.5" ry="20.5"/>
    </g>
    <path id="Rectangle_3" data-name="Rectangle 3" class="cls-5" d="M103,292H235a12,12,0,0,1,12,12h0a12,12,0,0,1-12,12H103a12,12,0,0,1-12-12h0A12,12,0,0,1,103,292Z" transform="translate(-55 -34)"/>
    <path id="Rectangle_4" data-name="Rectangle 4" class="cls-5" d="M97.5,322h170a6.5,6.5,0,0,1,6.5,6.5h0a6.5,6.5,0,0,1-6.5,6.5H97.5a6.5,6.5,0,0,1-6.5-6.5h0A6.5,6.5,0,0,1,97.5,322Z" transform="translate(-55 -34)"/>
    <path id="Rectangle_5" data-name="Rectangle 5" class="cls-5" d="M97.5,340h170a6.5,6.5,0,0,1,6.5,6.5h0a6.5,6.5,0,0,1-6.5,6.5H97.5a6.5,6.5,0,0,1-6.5-6.5h0A6.5,6.5,0,0,1,97.5,340Z" transform="translate(-55 -34)"/>
    <g id="Rectangle_2" data-name="Rectangle 2">
      <rect class="cls-3" x="44" y="81" width="54" height="52" rx="15"/>
      <rect class="cls-4" x="45" y="82" width="52" height="50" rx="14"/>
    </g>
    <g id="Rectangle_10" data-name="Rectangle 10">
      <rect class="cls-3" x="44" y="140" width="54" height="52" rx="15"/>
      <rect class="cls-4" x="45" y="141" width="52" height="50" rx="14"/>
    </g>
    <g id="Rectangle_7" data-name="Rectangle 7">
      <rect class="cls-3" x="103" y="81" width="54" height="52" rx="15"/>
      <rect class="cls-4" x="104" y="82" width="52" height="50" rx="14"/>
    </g>
    <g id="Rectangle_9" data-name="Rectangle 9">
      <rect class="cls-3" x="103" y="140" width="54" height="52" rx="15"/>
      <rect class="cls-4" x="104" y="141" width="52" height="50" rx="14"/>
    </g>
    <g id="Rectangle_8" data-name="Rectangle 8">
      <rect class="cls-3" x="162" y="81" width="54" height="52" rx="15"/>
      <rect class="cls-4" x="163" y="82" width="52" height="50" rx="14"/>
    </g>
    <g id="Rectangle_11" data-name="Rectangle 11">
      <rect class="cls-3" x="162" y="140" width="54" height="52" rx="15"/>
      <rect class="cls-4" x="163" y="141" width="52" height="50" rx="14"/>
    </g>
  </g>
</svg>
