<svg id="Layer_1" data-name="Layer 1" xmlns="http://www.w3.org/2000/svg" width="234" height="379" viewBox="0 0 234 379">
  <defs>
    <style>
      .cls-1 {
        fill: #fff;
      }

      .cls-2, .cls-4 {
        fill: none;
        stroke-width: 2px;
      }

      .cls-2 {
        stroke: #e7e7e7;
      }

      .cls-3 {
        fill: #c577ff;
      }

      .cls-4 {
        stroke: #eaeaea;
      }

      .cls-5, .cls-7 {
        fill: #eaeaea;
      }

      .cls-6, .cls-7 {
        isolation: isolate;
      }

      .cls-7 {
        font-size: 14px;
        font-family: Poppins-SemiBold, Poppins;
        font-weight: 600;
      }
    </style>
  </defs>
  <g id="iPhone_12_Pro_Max_1" data-name="iPhone 12 Pro Max 1">
    <g id="Rectangle_1" data-name="Rectangle 1">
      <rect class="cls-1" width="234" height="379" rx="32"/>
      <rect class="cls-2" x="1" y="1" width="232" height="377" rx="31"/>
    </g>
    <g id="Ellipse_1" data-name="Ellipse 1">
      <ellipse class="cls-3" cx="45.5" cy="39.5" rx="22.5" ry="21.5"/>
      <ellipse class="cls-4" cx="45.5" cy="39.5" rx="21.5" ry="20.5"/>
    </g>
    <g id="Rectangle_2" data-name="Rectangle 2">
      <rect class="cls-3" x="31" y="81" width="175" height="142" rx="32"/>
      <rect class="cls-4" x="32" y="82" width="173" height="140" rx="31"/>
    </g>
    <path id="Rectangle_3" data-name="Rectangle 3" class="cls-5" d="M103,292H235a12,12,0,0,1,12,12h0a12,12,0,0,1-12,12H103a12,12,0,0,1-12-12h0A12,12,0,0,1,103,292Z" transform="translate(-68 -34)"/>
    <path id="Rectangle_4" data-name="Rectangle 4" class="cls-5" d="M97.5,322h170a6.5,6.5,0,0,1,6.5,6.5h0a6.5,6.5,0,0,1-6.5,6.5H97.5a6.5,6.5,0,0,1-6.5-6.5h0A6.5,6.5,0,0,1,97.5,322Z" transform="translate(-68 -34)"/>
    <path id="Rectangle_5" data-name="Rectangle 5" class="cls-5" d="M97.5,340h170a6.5,6.5,0,0,1,6.5,6.5h0a6.5,6.5,0,0,1-6.5,6.5H97.5a6.5,6.5,0,0,1-6.5-6.5h0A6.5,6.5,0,0,1,97.5,340Z" transform="translate(-68 -34)"/>
    <path id="Rectangle_6" data-name="Rectangle 6" class="cls-5" d="M103.5,370h38A11.5,11.5,0,0,1,153,381.5h0A11.5,11.5,0,0,1,141.5,393h-38A11.5,11.5,0,0,1,92,381.5h0A11.5,11.5,0,0,1,103.5,370Z" transform="translate(-68 -34)"/>
    <g id="_1_1" data-name=" 1 1" class="cls-6">
      <text class="cls-7" transform="translate(103 353)">1/1</text>
    </g>
  </g>
</svg>
